<svg xmlns="http://www.w3.org/2000/svg" version="1.1" xmlns:xlink="http://www.w3.org/1999/xlink" xmlns:svgjs="http://svgjs.dev/svgjs" width="2000" height="611" viewBox="0 0 2000 611"><g transform="matrix(1,0,0,1,-1.2121212121212466,0.17998396950895312)"><svg viewBox="0 0 396 121" data-background-color="#ffffff" preserveAspectRatio="xMidYMid meet" height="611" width="2000" xmlns="http://www.w3.org/2000/svg" xmlns:xlink="http://www.w3.org/1999/xlink"><g id="tight-bounds" transform="matrix(1,0,0,1,0.2400000000000091,-0.03564330656396919)"><svg viewBox="0 0 395.52 121.07128661312792" height="121.07128661312792" width="395.52"><g><svg viewBox="0 0 593.0555721524388 181.53823107195714" height="121.07128661312792" width="395.52"><g transform="matrix(1,0,0,1,0,25.08958186305631)"><svg viewBox="0 0 395.52 131.35906734584452" height="131.35906734584452" width="395.52"><g><svg viewBox="0 0 395.52 131.35906734584452" height="131.35906734584452" width="395.52"><g><svg viewBox="0 0 395.52 83.65158245083208" height="83.65158245083208" width="395.52"><g transform="matrix(1,0,0,1,0,0)"><svg width="395.52" viewBox="-0.550000011920929 -34.95000076293945 166.24000549316406 34.95000076293945" height="83.65158245083208" data-palette-color="#113f67"><g class="undefined-text-0" data-fill-palette-color="primary" id="text-0"><path d="M28.3-2.15L35.3-2.15 35.3 0-0.55 0-0.55-2.15 4.3-2.15 4.3-34.95 17.9-34.95Q21.45-34.95 24.03-34.1 26.6-33.25 27.9-31.8L27.9-31.8Q30.25-29.1 30.25-25.7L30.25-25.7Q30.25-21.6 27.6-19.6L27.6-19.6Q26.7-18.9 26.35-18.73 26-18.55 25.1-18.15L25.1-18.15Q28.35-17.45 30.28-15.23 32.2-13 32.2-9.7L32.2-9.7Q32.2-4.75 28.3-2.15L28.3-2.15ZM12.1-14.65L12.1-6.6 17.45-6.6Q20.8-6.6 22.48-7.43 24.15-8.25 24.15-10.68 24.15-13.1 22.38-13.88 20.6-14.65 16.7-14.65L16.7-14.65 12.1-14.65ZM12.1-28.35L12.1-20.8 15.8-20.8Q19.05-20.8 20.63-21.5 22.2-22.2 22.2-24.53 22.2-26.85 20.75-27.6 19.3-28.35 15.85-28.35L15.85-28.35 12.1-28.35ZM54.65-2.15L66.2-2.15 66.2 0 35.3 0 35.3-2.15 46.85-2.15 46.85-13.8 34.75-34.95 43.2-34.95 50.75-21.95 58.3-34.95 66.75-34.95 54.65-13.8 54.65-2.15ZM85.3-2.15L96.6-2.15 96.6 0 66.2 0 66.2-2.15 77.5-2.15 77.5-28.2 67.6-28.2 67.6-34.95 95.2-34.95 95.2-28.2 85.3-28.2 85.3-2.15ZM96.04-2.15L100.89-2.15 100.89-34.95 126.09-34.95 126.09-28 108.69-28 108.69-20.8 124.34-20.8 124.34-14.15 108.69-14.15 108.69-6.9 126.64-6.9 126.64-2.15 131.49-2.15 131.49 0 96.04 0 96.04-2.15ZM160.84-2.15L165.69-2.15 165.69 0 126.74 0 126.74-2.15 131.59-2.15 131.59-5.35 149.89-28.2 132.19-28.2 132.19-34.95 160.54-34.95 160.54-29.55 142.29-6.8 160.84-6.8 160.84-2.15Z" fill="#113f67" data-fill-palette-color="primary"></path></g></svg></g></svg></g><g transform="matrix(1,0,0,1,163.310208,103.39971342949471)"><svg viewBox="0 0 232.209792 27.959353916349812" height="27.959353916349812" width="232.209792"><g transform="matrix(1,0,0,1,0,0)"><svg width="232.209792" viewBox="1.25 -37.5 315.57000732421875 38" height="27.959353916349812" data-palette-color="#87c0cd"><path d="M21.4-9.25L27.4-35 40.75-35 40.75-34.05 38-34.05 38-0.95 40.75-0.95 40.75 0 25.5 0 25.5-0.95 28.25-0.95 28.25-32.2 28.05-32.2 20.55 0 14.3 0 5.5-32.35 5.3-32.35 5.3-0.95 8.05-0.95 8.05 0 1.25 0 1.25-0.95 4-0.95 4-34.05 1.25-34.05 1.25-35 14.75-35 21.4-9.25ZM54.5-11.75L54.5-11.75 55.95-11.75 55.95-15.6Q55.95-20.35 55.42-21.98 54.9-23.6 53.4-23.6L53.4-23.6Q52.5-23.6 51.77-23.13 51.05-22.65 51.05-21.83 51.05-21 51.35-20.15L51.35-20.15 52.6-20.15Q53-19.1 53-17.63 53-16.15 51.75-15.08 50.5-14 48.6-14L48.6-14Q44.3-14 44.3-18.15L44.3-18.15Q44.3-24.3 54.75-24.3L54.75-24.3Q60.7-24.3 62.97-22.28 65.25-20.25 65.25-14.85L65.25-14.85 65.25-4.7Q65.25-2.1 66.7-2.1L66.7-2.1Q68.4-2.1 68.7-7.25L68.7-7.25 69.45-7.2Q69.25-2.8 67.8-1.15 66.35 0.5 63.05 0.5L63.05 0.5Q57.05 0.5 56.15-3.2L56.15-3.2Q55.5-1.3 54.2-0.4 52.9 0.5 50.4 0.5L50.4 0.5Q43 0.5 43-5.55L43-5.55Q43-9.1 45.82-10.43 48.65-11.75 54.5-11.75ZM52.5-5.6Q52.5-3 52.77-2.25 53.05-1.5 53.82-1.5 54.6-1.5 55.27-2.78 55.95-4.05 55.95-6.3L55.95-6.3 55.95-10.95 55.6-10.95Q52.5-10.95 52.5-6.4L52.5-6.4 52.5-5.6ZM100.2 0L86.3 0 86.3-0.9 88.6-0.9 82.95-12.5 82-12.25 82-0.9 84.3-0.9 84.3 0 69.95 0 69.95-0.9 72.7-0.9 72.7-36.6 69.75-36.6 69.75-37.5 82-37.5 82-13.25 82.8-13.55 94.05-22.9 89.35-22.9 89.35-23.8 99.2-23.8 99.2-22.9 95.7-22.9 89.75-17.85 98.4-0.9 100.2-0.9 100.2 0ZM112.84 0.5Q106.39 0.5 103.17-2.83 99.94-6.15 99.94-12.08 99.94-18 103.57-21.15 107.19-24.3 112.79-24.3L112.79-24.3Q124.14-24.3 123.69-12.9L123.69-12.9 109.59-12.9 109.59-10.95Q109.59-6.05 110.84-3.55 112.09-1.05 115.19-1.05L115.19-1.05Q120.99-1.05 122.79-7.25L122.79-7.25 123.69-7.1Q122.74-3.5 120.27-1.5 117.79 0.5 112.84 0.5L112.84 0.5ZM109.64-16.35L109.64-13.9 114.79-13.9 114.79-16.35Q114.79-20.4 114.32-21.88 113.84-23.35 112.42-23.35 110.99-23.35 110.32-21.78 109.64-20.2 109.64-16.35L109.64-16.35ZM141.84-27.25Q139.19-27.25 138.06-28.6 136.94-29.95 136.94-31.95 136.94-33.95 138.16-35.25 139.39-36.55 141.89-36.55 144.39-36.55 145.69-35.38 146.99-34.2 146.99-32.02 146.99-29.85 145.74-28.55 144.49-27.25 141.84-27.25ZM134.29-22.9L134.29-23.8 146.54-23.8 146.54-0.9 149.34-0.9 149.34 0 134.49 0 134.49-0.9 137.24-0.9 137.24-22.9 134.29-22.9ZM152.84-7.15L152.84-7.15 152.84-22.9 150.09-22.9 150.09-23.8 152.84-23.8 152.84-30.25 162.14-32.55 162.14-23.8 168.64-23.8 168.64-22.9 162.14-22.9 162.14-6.05Q162.14-3.7 162.61-2.6 163.09-1.5 164.59-1.5 166.09-1.5 167.21-3 168.34-4.5 168.69-7.1L168.69-7.1 169.54-7Q169.14-3.55 167.34-1.53 165.53 0.5 161.39 0.5 157.24 0.5 155.03-1.15 152.84-2.8 152.84-7.15ZM180.78 0.5L180.18 0.5 180.18-8.45 180.78-8.45Q182.08-4.1 184.28-2.35 186.48-0.6 189.78-0.6L189.78-0.6Q194.88-0.6 194.88-3.85L194.88-3.85Q194.88-5.25 193.63-5.95L193.63-5.95Q191.68-7.05 188.63-7.65L188.63-7.65Q185.23-8.55 182.93-10.05L182.93-10.05Q180.18-11.85 180.18-15.75 180.18-19.65 182.58-21.98 184.98-24.3 188.98-24.3L188.98-24.3Q191.43-24.3 194.03-23.15L194.03-23.15Q194.98-22.75 195.48-22.75 195.98-22.75 196.33-23.1 196.68-23.45 197.18-24.4L197.18-24.4 197.73-24.4 197.73-16.75 197.13-16.75Q194.58-23.25 189.23-23.25L189.23-23.25Q186.88-23.25 185.73-22.43 184.58-21.6 184.58-20.35L184.58-20.35Q184.58-19.6 184.93-19.18 185.28-18.75 185.48-18.55 185.68-18.35 186.13-18.13 186.58-17.9 186.88-17.78 187.18-17.65 187.81-17.45 188.43-17.25 188.73-17.2L188.73-17.2Q192.13-16.35 193.63-15.73 195.13-15.1 196.48-14.2L196.48-14.2Q199.23-12.3 199.23-8.08 199.23-3.85 196.73-1.68 194.23 0.5 189.88 0.5L189.88 0.5Q186.78 0.5 183.88-0.95L183.88-0.95Q183.28-1.35 182.93-1.35L182.93-1.35Q181.83-1.35 180.78 0.5L180.78 0.5ZM200.38-22.9L200.38-23.8 212.43-23.8 212.43-19.2Q214.08-24.3 219.7-24.3 225.33-24.3 226.53-18.9L226.53-18.9Q228.28-24.3 233.88-24.3L233.88-24.3Q241.23-24.3 241.23-15.95L241.23-15.95 241.23-0.9 244.03-0.9 244.03 0 230.18 0 230.18-0.9 231.93-0.9 231.93-17.15Q231.93-20.95 231.28-21.6L231.28-21.6Q230.98-21.9 230.48-21.9L230.48-21.9Q229.03-21.9 227.93-19.95 226.83-18 226.83-15L226.83-15 226.83-0.9 228.63-0.9 228.63 0 215.78 0 215.78-0.9 217.53-0.9 217.53-17.15Q217.53-20.95 216.88-21.6L216.88-21.6Q216.58-21.9 216.08-21.9L216.08-21.9Q214.68-21.9 213.55-19.78 212.43-17.65 212.43-14.7L212.43-14.7 212.43-0.9 214.23-0.9 214.23 0 200.38 0 200.38-0.9 203.13-0.9 203.13-22.9 200.38-22.9ZM256.78-11.75L256.78-11.75 258.23-11.75 258.23-15.6Q258.23-20.35 257.7-21.98 257.18-23.6 255.68-23.6L255.68-23.6Q254.78-23.6 254.05-23.13 253.33-22.65 253.33-21.83 253.33-21 253.63-20.15L253.63-20.15 254.88-20.15Q255.28-19.1 255.28-17.63 255.28-16.15 254.03-15.08 252.78-14 250.88-14L250.88-14Q246.58-14 246.58-18.15L246.58-18.15Q246.58-24.3 257.03-24.3L257.03-24.3Q262.98-24.3 265.25-22.28 267.53-20.25 267.53-14.85L267.53-14.85 267.53-4.7Q267.53-2.1 268.98-2.1L268.98-2.1Q270.68-2.1 270.98-7.25L270.98-7.25 271.73-7.2Q271.53-2.8 270.08-1.15 268.63 0.5 265.33 0.5L265.33 0.5Q259.33 0.5 258.43-3.2L258.43-3.2Q257.78-1.3 256.48-0.4 255.18 0.5 252.68 0.5L252.68 0.5Q245.28 0.5 245.28-5.55L245.28-5.55Q245.28-9.1 248.1-10.43 250.93-11.75 256.78-11.75ZM254.78-5.6Q254.78-3 255.05-2.25 255.33-1.5 256.1-1.5 256.88-1.5 257.55-2.78 258.23-4.05 258.23-6.3L258.23-6.3 258.23-10.95 257.88-10.95Q254.78-10.95 254.78-6.4L254.78-6.4 254.78-5.6ZM272.02-36.6L272.02-37.5 284.27-37.5 284.27-0.9 287.07-0.9 287.07 0 272.22 0 272.22-0.9 274.97-0.9 274.97-36.6 272.02-36.6ZM287.82-36.6L287.82-37.5 300.07-37.5 300.07-0.9 302.87-0.9 302.87 0 288.02 0 288.02-0.9 290.77-0.9 290.77-36.6 287.82-36.6ZM313.32-8.9L312.22-8.9 312.22-13.2Q312.22-17.5 310.59-23.43 308.97-29.35 308.97-31.5 308.97-33.65 310.14-34.6 311.32-35.55 313.02-35.55L313.02-35.55Q316.82-35.55 316.82-31.5L316.82-31.5Q316.82-29.15 315.07-23.3 313.32-17.45 313.32-13.15L313.32-13.15 313.32-8.9ZM312.59 0.5Q310.72 0.5 309.79-0.58 308.87-1.65 308.87-3.28 308.87-4.9 309.87-5.98 310.87-7.05 312.62-7.05 314.37-7.05 315.42-6.13 316.47-5.2 316.47-3.4 316.47-1.6 315.47-0.55 314.47 0.5 312.59 0.5Z" opacity="1" transform="matrix(1,0,0,1,0,0)" fill="#87c0cd" class="undefined-text-1" data-fill-palette-color="secondary" id="text-1"></path></svg></g></svg></g></svg></g></svg></g><g transform="matrix(1,0,0,1,415.2681309786626,0)"><svg viewBox="0 0 177.78744117377622 181.53823107195714" height="181.53823107195714" width="177.78744117377622"><g><svg xmlns="http://www.w3.org/2000/svg" xmlns:xlink="http://www.w3.org/1999/xlink" version="1.1" x="0" y="0" viewBox="19 14 474 484" style="enable-background:new 0 0 512 512;" xml:space="preserve" height="181.53823107195714" width="177.78744117377622" class="icon-icon-0" data-fill-palette-color="accent" id="icon-0"><g fill="#87c0cd" data-fill-palette-color="accent"><g fill="#87c0cd" data-fill-palette-color="accent"><g fill="#87c0cd" data-fill-palette-color="accent"><g fill="#87c0cd" data-fill-palette-color="accent"><path d="M136 208c-42.458 0-77-34.542-77-77s34.542-77 77-77 77 34.542 77 77S178.458 208 136 208zM136 68c-34.738 0-63 28.262-63 63s28.262 63 63 63 63-28.262 63-63S170.738 68 136 68z" fill="#87c0cd" data-fill-palette-color="accent"></path></g><g fill="#87c0cd" data-fill-palette-color="accent"><path d="M136 458c-42.458 0-77-34.542-77-77s34.542-77 77-77 77 34.542 77 77S178.458 458 136 458zM136 318c-34.738 0-63 28.262-63 63s28.262 63 63 63 63-28.262 63-63S170.738 318 136 318z" fill="#87c0cd" data-fill-palette-color="accent"></path></g><g fill="#87c0cd" data-fill-palette-color="accent"><path d="M190 292.152c-1.187 0-2.373-0.301-3.441-0.904C171.208 282.581 153.725 278 136 278c-15.028 0-29.518 3.168-43.069 9.415-2.167 1-4.694 0.826-6.705-0.461S83 283.445 83 281.059v-50.117c0-2.387 1.216-4.609 3.226-5.896 2.009-1.287 4.537-1.461 6.705-0.461C106.482 230.833 120.973 234 136 234c17.725 0 35.208-4.581 50.559-13.249 2.167-1.224 4.821-1.205 6.971 0.05s3.471 3.557 3.471 6.045v58.305c0 2.489-1.321 4.79-3.471 6.045C192.439 291.834 191.22 292.152 190 292.152zM136 264c16.215 0 32.256 3.378 47 9.839v-35.678c-14.744 6.461-30.786 9.839-47 9.839-13.449 0-26.523-2.236-39-6.659v29.318C109.476 266.236 122.55 264 136 264z" fill="#87c0cd" data-fill-palette-color="accent"></path></g><g fill="#87c0cd" data-fill-palette-color="accent"><path d="M136 498c-64.514 0-117-52.486-117-117 0-45.51 26.719-87.234 68.069-106.299C102.471 267.601 118.934 264 136 264c20.132 0 39.995 5.207 57.441 15.057C230.179 299.8 253 338.861 253 381 253 445.514 200.514 498 136 498zM136 278c-15.028 0-29.518 3.168-43.069 9.415C56.524 304.2 33 340.934 33 381c0 56.794 46.206 103 103 103s103-46.206 103-103c0-37.098-20.094-71.488-52.441-89.752C171.208 282.581 153.725 278 136 278z" fill="#87c0cd" data-fill-palette-color="accent"></path></g><g fill="#87c0cd" data-fill-palette-color="accent"><path d="M136 248c-17.065 0-33.528-3.601-48.931-10.701C45.719 218.234 19 176.509 19 131 19 66.486 71.486 14 136 14s117 52.486 117 117c0 42.139-22.821 81.201-59.559 101.943C175.995 242.793 156.131 248 136 248zM136 28C79.206 28 33 74.206 33 131c0 40.065 23.524 76.8 59.931 93.585C106.482 230.833 120.973 234 136 234c17.725 0 35.208-4.581 50.559-13.249C218.906 202.488 239 168.097 239 131 239 74.206 192.794 28 136 28z" fill="#87c0cd" data-fill-palette-color="accent"></path></g><g fill="#87c0cd" data-fill-palette-color="accent"><path d="M90 188c-1.792 0-3.583-0.684-4.95-2.05-2.734-2.733-2.734-7.166 0-9.899l40-40c2.733-2.733 7.166-2.733 9.899 0 2.734 2.733 2.734 7.166 0 9.899l-40 40C93.583 187.316 91.792 188 90 188z" fill="#87c0cd" data-fill-palette-color="accent"></path></g><g fill="#87c0cd" data-fill-palette-color="accent"><path d="M120 198c-1.792 0-3.583-0.684-4.95-2.05-2.734-2.733-2.734-7.166 0-9.899l50-50c2.733-2.733 7.166-2.733 9.899 0 2.734 2.733 2.734 7.166 0 9.899l-50 50C123.583 197.316 121.792 198 120 198z" fill="#87c0cd" data-fill-palette-color="accent"></path></g><g fill="#87c0cd" data-fill-palette-color="accent"><path d="M486 498H276c-3.866 0-7-3.134-7-7V31c0-3.866 3.134-7 7-7h210c3.866 0 7 3.134 7 7v460C493 494.866 489.866 498 486 498zM283 484h196V38H283V484z" fill="#87c0cd" data-fill-palette-color="accent"></path></g><g fill="#87c0cd" data-fill-palette-color="accent"><path d="M446 458H316c-3.866 0-7-3.134-7-7v-60c0-3.866 3.134-7 7-7h130c3.866 0 7 3.134 7 7v60C453 454.866 449.866 458 446 458zM323 444h116v-46H323V444z" fill="#87c0cd" data-fill-palette-color="accent"></path></g><g fill="#87c0cd" data-fill-palette-color="accent"><path d="M486 292.884c-1.263 0-2.523-0.341-3.64-1.021l-114.938-69.962c-2.317-1.411-3.61-4.033-3.32-6.73 0.177-1.641 0.346-3.29 0.514-4.939 0.409-4.002 0.826-8.077 1.367-12.054-4.139 0.551-8.369 0.957-12.523 1.355-5.772 0.553-11.225 1.076-16.287 1.941-1.669 0.283-3.377-0.042-4.819-0.92l-59.993-36.518c-2.087-1.271-3.36-3.537-3.36-5.979V99.523c0-2.53 1.365-4.863 3.57-6.103 2.206-1.239 4.909-1.193 7.069 0.123l103.601 63.061c2.32 1.412 3.613 4.039 3.319 6.739-0.197 1.802-0.383 3.616-0.567 5.428-0.409 3.998-0.825 8.067-1.366 12.039 4.138-0.551 8.368-0.958 12.521-1.356 6.003-0.576 11.674-1.121 16.897-2.05 1.683-0.298 3.409 0.027 4.865 0.913l70.729 43.053c2.087 1.271 3.36 3.537 3.36 5.979v58.534c0 2.53-1.365 4.863-3.57 6.103C488.363 292.585 487.181 292.884 486 292.884zM378.484 212.245L479 273.428v-42.144l-65.151-39.657c-5.005 0.77-10.258 1.274-15.363 1.764-6.108 0.586-12.392 1.19-17.955 2.237-0.854 4.939-1.407 10.364-1.986 16.028C378.524 211.852 378.504 212.048 378.484 212.245zM283 154.124l54.435 33.134c4.799-0.712 9.813-1.193 14.688-1.66 6.108-0.586 12.393-1.188 17.955-2.235 0.854-4.935 1.407-10.355 1.986-16.015 0.037-0.362 0.074-0.725 0.111-1.088L283 111.979V154.124z" fill="#87c0cd" data-fill-palette-color="accent"></path></g><g fill="#87c0cd" data-fill-palette-color="accent"><path d="M376 196.424c-1.836 0-3.623-0.723-4.951-2.052-1.708-1.709-2.414-4.179-1.867-6.533 1.405-6.048 2.123-13.063 2.883-20.492 0.188-1.844 0.377-3.69 0.577-5.523 1.502-13.765 3.675-27.91 12.115-36.352 7.399-7.399 17.239-11.474 27.707-11.474 10.457 0 20.285 4.069 27.674 11.457 15.272 15.273 15.272 40.124 0 55.397-6.685 6.684-16.694 9.1-23.642 10.335-5.777 1.027-11.996 1.624-18.011 2.202-7.216 0.693-14.678 1.409-20.904 2.853C377.057 196.365 376.526 196.424 376 196.424zM412.464 128c-6.729 0-13.053 2.619-17.808 7.373-5.226 5.226-6.92 17.178-8.097 27.971-0.197 1.802-0.383 3.616-0.568 5.429-0.408 3.997-0.824 8.066-1.365 12.038 4.138-0.551 8.368-0.958 12.521-1.356 6.003-0.576 11.674-1.121 16.897-2.05 7.974-1.417 13.271-3.527 16.192-6.45 9.814-9.814 9.814-25.784 0-35.598C425.494 130.612 419.182 128 412.464 128z" fill="#87c0cd" data-fill-palette-color="accent"></path></g><g fill="#87c0cd" data-fill-palette-color="accent"><path d="M338.146 264.99c-0.001 0 0 0-0.002 0-10.457-0.001-20.285-4.069-27.673-11.457-7.399-7.4-11.474-17.24-11.472-27.707 0.003-10.462 4.077-20.296 11.473-27.69 6.81-6.811 17.153-9.232 24.341-10.461 5.572-0.952 11.539-1.524 17.31-2.078 7.217-0.692 14.679-1.408 20.905-2.852 2.354-0.547 4.823 0.162 6.532 1.871 1.708 1.709 2.414 4.179 1.867 6.533-1.406 6.051-2.124 13.072-2.884 20.505-0.171 1.675-0.342 3.351-0.521 5.017-1.511 13.995-3.694 28.368-12.17 36.844C358.453 260.915 348.613 264.99 338.146 264.99zM365.983 198.179c-4.139 0.551-8.369 0.957-12.523 1.355-5.772 0.553-11.225 1.076-16.288 1.941-8.427 1.44-13.766 3.525-16.8 6.561-4.752 4.751-7.37 11.071-7.372 17.794-0.001 6.726 2.616 13.048 7.372 17.804 4.743 4.744 11.055 7.356 17.773 7.356 6.728 0 13.052-2.619 17.807-7.374 5.255-5.255 6.963-17.438 8.15-28.446 0.177-1.64 0.346-3.29 0.515-4.939C365.025 206.23 365.442 202.155 365.983 198.179z" fill="#87c0cd" data-fill-palette-color="accent"></path></g><g fill="#87c0cd" data-fill-palette-color="accent"><path d="M426 368h-90c-3.866 0-7-3.134-7-7s3.134-7 7-7h90c3.866 0 7 3.134 7 7S429.866 368 426 368z" fill="#87c0cd" data-fill-palette-color="accent"></path></g><g fill="#87c0cd" data-fill-palette-color="accent"><path d="M426 338h-90c-3.866 0-7-3.134-7-7s3.134-7 7-7h90c3.866 0 7 3.134 7 7S429.866 338 426 338z" fill="#87c0cd" data-fill-palette-color="accent"></path></g></g></g></g></svg></g></svg></g></svg></g><defs></defs></svg><rect width="395.52" height="121.07128661312792" fill="none" stroke="none" visibility="hidden"></rect></g></svg></g></svg>